{
  "accessors": [
    {
      "bufferView": 2,
      "componentType": 5126,
      "count": 35413,
      "max": [
        1.7950090169906616,
        -0.32450300455093384,
        1.6614500284194946
      ],
      "min": [
        -1.85636305809021,
        -3.6783699989318848,
        -2.8283219337463379
      ],
      "type": "VEC3"
    },
    {
      "bufferView": 2,
      "byteOffset": 424956,
      "componentType": 5126,
      "count": 35413,
      "max": [
        0.99988067150115967,
        0.99995630979537964,
        0.99995774030685425
      ],
      "min": [
        -0.99996864795684814,
        -0.99988347291946411,
        -0.99945861101150513
      ],
      "type": "VEC3"
    },
    {
      "bufferView": 3,
      "componentType": 5126,
      "count": 35413,
      "max": [
        0.99998527765274048,
        0.99999970197677612,
        0.99999988079071045,
        1
      ],
      "min": [
        -1,
        -0.99999904632568359,
        -1,
        -1
      ],
      "type": "VEC4"
    },
    {
      "bufferView": 1,
      "componentType": 5126,
      "count": 35413,
      "max": [
        0.97191500663757324,
        0.99000000953674316
      ],
      "min": [
        0.0099999997764825821,
        0.0099999997764825821
      ],
      "type": "VEC2"
    },
    {
      "bufferView": 0,
      "componentType": 5125,
      "count": 149946,
      "max": [
        35412
      ],
      "min": [
        0
      ],
      "type": "SCALAR"
    }
  ],
  "asset": {
    "extras": {
      "author": "grafi (https://sketchfab.com/zdenkoroman)",
      "license": "CC-BY-4.0 (http://creativecommons.org/licenses/by/4.0/)",
      "source": "https://sketchfab.com/3d-models/big-rock-3d-scan-7cdf1110b8134d128dbbbab403a177cd",
      "title": "Big Rock 3D Scan"
    },
    "generator": "Sketchfab-8.79.0",
    "version": "2.0"
  },
  "bufferViews": [
    {
      "buffer": 0,
      "byteLength": 599784,
      "byteOffset": 0,
      "name": "floatBufferViews",
      "target": 34963
    },
    {
      "buffer": 0,
      "byteLength": 283304,
      "byteOffset": 599784,
      "byteStride": 8,
      "name": "floatBufferViews",
      "target": 34962
    },
    {
      "buffer": 0,
      "byteLength": 849912,
      "byteOffset": 883088,
      "byteStride": 12,
      "name": "floatBufferViews",
      "target": 34962
    },
    {
      "buffer": 0,
      "byteLength": 566608,
      "byteOffset": 1733000,
      "byteStride": 16,
      "name": "floatBufferViews",
      "target": 34962
    }
  ],
  "buffers": [
    {
      "byteLength": 2299608,
      "uri": "scene.bin"
    }
  ],
  "extensionsRequired": [
    "KHR_materials_pbrSpecularGlossiness"
  ],
  "extensionsUsed": [
    "KHR_materials_pbrSpecularGlossiness"
  ],
  "images": [
    {
      "uri": "textures/skala-low_diffuse.jpeg"
    },
    {
      "uri": "textures/skala-low_specularGlossiness.jpeg"
    },
    {
      "uri": "textures/skala-low_normal.jpeg"
    },
    {
      "uri": "textures/skala-low_occlusion.png"
    }
  ],
  "materials": [
    {
      "doubleSided": true,
      "extensions": {
        "KHR_materials_pbrSpecularGlossiness": {
          "diffuseFactor": [
            1,
            1,
            1,
            1
          ],
          "diffuseTexture": {
            "index": 0,
            "texCoord": 0
          },
          "glossinessFactor": 0.1050729924788258,
          "specularFactor": [
            1,
            1,
            1
          ],
          "specularGlossinessTexture": {
            "index": 1,
            "texCoord": 0
          }
        }
      },
      "name": "skala-low",
      "normalTexture": {
        "index": 2,
        "scale": 1,
        "texCoord": 0
      },
      "occlusionTexture": {
        "index": 3,
        "strength": 1,
        "texCoord": 0
      }
    }
  ],
  "meshes": [
    {
      "primitives": [
        {
          "attributes": {
            "NORMAL": 1,
            "POSITION": 0,
            "TANGENT": 2,
            "TEXCOORD_0": 3
          },
          "indices": 4,
          "material": 0,
          "mode": 4
        }
      ]
    }
  ],
  "nodes": [
    {
      "children": [
        1
      ],
      "name": "RootNode (gltf orientation matrix)",
      "rotation": [
        -0.70710678118654746,
        -0,
        -0,
        0.70710678118654757
      ]
    },
    {
      "children": [
        2
      ],
      "matrix": [
        0.99695742130279541,
        -1.1171619185290638e-15,
        -0.077948324382305145,
        0,
        -0.077815257012844086,
        0.058406442403793335,
        -0.99525547027587891,
        0,
        0.0045526842586696148,
        0.99829286336898804,
        0.058228734880685806,
        0,
        -0.15317948162555695,
        -1.3020995855331421,
        -2.5437963008880615,
        1
      ],
      "name": "RootNode (model correction matrix)"
    },
    {
      "children": [
        3
      ],
      "name": "skala-low.obj.cleaner.materialmerger.gles"
    },
    {
      "mesh": 0,
      "name": ""
    }
  ],
  "samplers": [
    {
      "magFilter": 9729,
      "minFilter": 9987,
      "wrapS": 10497,
      "wrapT": 10497
    }
  ],
  "scene": 0,
  "scenes": [
    {
      "name": "OSG_Scene",
      "nodes": [
        0
      ]
    }
  ],
  "textures": [
    {
      "sampler": 0,
      "source": 0
    },
    {
      "sampler": 0,
      "source": 1
    },
    {
      "sampler": 0,
      "source": 2
    },
    {
      "sampler": 0,
      "source": 3
    }
  ]
}

